<svg width="32" height="32" viewBox="0 0 32 32" fill="none" xmlns="http://www.w3.org/2000/svg">
<path fill-rule="evenodd" clip-rule="evenodd" d="M15.5381 21.9906C15.1752 22.4069 14.5435 22.4501 14.1272 22.0872L8.00954 16.7539C7.7917 16.564 7.66667 16.2891 7.66667 16.0001C7.66667 15.7111 7.7917 15.4362 8.00954 15.2463L14.1272 9.91299C14.5435 9.55006 15.1752 9.59333 15.5381 10.0096C15.901 10.4259 15.8577 11.0576 15.4415 11.4205L11.3355 15.0001L23.3333 15.0001C23.8856 15.0001 24.3333 15.4478 24.3333 16.0001C24.3333 16.5524 23.8856 17.0001 23.3333 17.0001L11.3355 17.0001L15.4415 20.5797C15.8578 20.9426 15.901 21.5743 15.5381 21.9906Z" fill="white"/>
</svg>
