<svg width="375" height="440" viewBox="0 0 375 440" fill="none" xmlns="http://www.w3.org/2000/svg">
<g opacity="0.5">
<path d="M408 336.51H-32V336.73H408V336.51Z" fill="#EBEBEB"/>
<path d="M363.913 350.675H334.766V350.895H363.913V350.675Z" fill="#EBEBEB"/>
<path d="M259.474 353.063H251.824V353.283H259.474V353.063Z" fill="#EBEBEB"/>
<path d="M333.885 342.503H316.996V342.723H333.885V342.503Z" fill="#EBEBEB"/>
<path d="M52.1737 343.981H14.1638V344.201H52.1737V343.981Z" fill="#EBEBEB"/>
<path d="M65.5823 343.981H60.0093V344.201H65.5823V343.981Z" fill="#EBEBEB"/>
<path d="M166.129 347.698H83.6945V347.918H166.129V347.698Z" fill="#EBEBEB"/>
<path d="M176.572 297.264H6.64511C3.87575 297.264 1.62207 295.01 1.62207 292.241V53.3808C1.62207 50.6115 3.87575 48.3578 6.64511 48.3578H176.572C179.341 48.3578 181.594 50.6115 181.594 53.3808V292.241C181.594 295.01 179.341 297.264 176.572 297.264ZM6.64511 48.5787C3.99631 48.5787 1.84207 50.7329 1.84207 53.3817V292.242C1.84207 294.891 3.99631 297.045 6.64511 297.045H176.572C179.22 297.045 181.374 294.891 181.374 292.242V53.3808C181.374 50.7329 179.22 48.5778 176.572 48.5778L6.64511 48.5787Z" fill="#EBEBEB"/>
<path d="M366.913 297.264H196.987C194.217 297.264 191.964 295.01 191.964 292.241V53.3808C191.964 50.6115 194.218 48.3578 196.987 48.3578H366.913C369.683 48.3578 371.936 50.6115 371.936 53.3808V292.241C371.937 295.01 369.683 297.264 366.913 297.264ZM196.987 48.5787C194.339 48.5787 192.184 50.7329 192.184 53.3817V292.242C192.184 294.891 194.339 297.045 196.987 297.045H366.913C369.562 297.045 371.716 294.891 371.716 292.242V53.3808C371.716 50.7329 369.562 48.5778 366.913 48.5778L196.987 48.5787Z" fill="#EBEBEB"/>
<path d="M222.928 153.171L344.175 153.171V73.7715L222.928 73.7715V153.171Z" fill="#E6E6E6"/>
<path d="M219.228 153.171L342.446 153.171V73.7715L219.228 73.7715V153.171Z" fill="#F0F0F0"/>
<path d="M222.928 168.754L344.175 168.754V153.171H222.928V168.754Z" fill="#E6E6E6"/>
<path d="M213.066 168.754L336.283 168.754V153.171H213.066V168.754Z" fill="#F0F0F0"/>
<path d="M337.267 147.992V78.951L224.408 78.951V147.992H337.267Z" fill="#FAFAFA"/>
<path d="M311.818 147.993L297.403 78.9519H274.91L289.324 147.993H311.818Z" fill="white"/>
<path d="M334.869 142.837C335.074 142.837 335.24 142.672 335.24 142.468V82.3214C335.24 82.1172 335.074 81.9518 334.869 81.9518C334.665 81.9518 334.499 82.1172 334.499 82.3214V142.468C334.499 142.672 334.665 142.837 334.869 142.837Z" fill="#F0F0F0"/>
<path d="M284.492 147.993L270.078 78.9519H261.307L275.723 147.993H284.492Z" fill="white"/>
<path d="M225.066 147.992V78.951H224.408V147.992H225.066Z" fill="#E6E6E6"/>
<path opacity="0.6" d="M218.004 86.7602H339.251L339.727 80.9645H218.48L218.004 86.7602Z" fill="#EBEBEB"/>
<path opacity="0.6" d="M218.004 96.2659H339.251L339.727 90.4702H218.48L218.004 96.2659Z" fill="#EBEBEB"/>
<path opacity="0.6" d="M218.004 105.772H339.251L339.727 99.976H218.48L218.004 105.772Z" fill="#EBEBEB"/>
<path opacity="0.6" d="M218.004 115.277H339.251L339.727 109.482H218.48L218.004 115.277Z" fill="#EBEBEB"/>
<path opacity="0.6" d="M218.004 124.783H339.251L339.727 118.987H218.48L218.004 124.783Z" fill="#EBEBEB"/>
<path opacity="0.6" d="M218.004 134.289H339.251L339.727 128.493H218.48L218.004 134.289Z" fill="#EBEBEB"/>
<path d="M326.765 278.767H301.343V283.78H326.765V278.767Z" fill="#E6E6E6"/>
<path d="M253.391 336.511H258.084V221.174H253.391V336.511Z" fill="#E6E6E6"/>
<path d="M237.135 283.78H301.343V278.768H237.135V283.78Z" fill="#F5F5F5"/>
<path d="M326.765 306.194H301.343V311.207H326.765V306.194Z" fill="#E6E6E6"/>
<path d="M237.135 311.206H301.343V306.194H237.135V311.206Z" fill="#F5F5F5"/>
<path d="M326.765 223.914H301.343V228.927H326.765V223.914Z" fill="#E6E6E6"/>
<path d="M237.135 228.926H301.343V223.914H237.135V228.926Z" fill="#F5F5F5"/>
<path d="M326.765 251.341H301.343V256.354H326.765V251.341Z" fill="#E6E6E6"/>
<path d="M237.135 256.353H301.343V251.34H237.135V256.353Z" fill="#F5F5F5"/>
<path d="M317.599 336.511H322.292V221.174H317.599V336.511Z" fill="#E6E6E6"/>
<path d="M296.65 336.511H301.343V221.174H296.65V336.511Z" fill="#F5F5F5"/>
<path d="M237.135 336.511H241.828V221.174H237.135V336.511Z" fill="#F5F5F5"/>
<path d="M25.5286 336.511H73.5573L73.5573 243.326H25.5286L25.5286 336.511Z" fill="#E6E6E6"/>
<path d="M38.3542 336.511H25.5291V323.647H51.8006L38.3542 336.511Z" fill="#FAFAFA"/>
<path d="M156.481 336.511H204.51V243.326H156.481V336.511Z" fill="#E6E6E6"/>
<path d="M25.5286 332.083H167.674V243.326H25.5286V332.083Z" fill="#FAFAFA"/>
<path d="M154.849 336.511H167.675V323.647H141.402L154.849 336.511Z" fill="#FAFAFA"/>
<path d="M35.4779 298.612H157.725V276.4H35.4779V298.612Z" fill="#F0F0F0"/>
<path d="M35.4779 325.571H157.725V303.359H35.4779V325.571Z" fill="#F0F0F0"/>
<path d="M58.7139 278.775H134.489C136.713 278.775 138.516 276.972 138.516 274.747V274.476H54.687V274.747C54.687 276.972 56.4901 278.775 58.7139 278.775Z" fill="#FAFAFA"/>
<path d="M35.4779 271.653H157.725V249.44H35.4779V271.653Z" fill="#F0F0F0"/>
<path d="M58.7139 251.816H134.489C136.713 251.816 138.516 250.012 138.516 247.788V247.517H54.687V247.788C54.687 250.012 56.4901 251.816 58.7139 251.816Z" fill="#FAFAFA"/>
<path d="M58.7139 305.734H134.489C136.713 305.734 138.516 303.931 138.516 301.707V301.436H54.687V301.707C54.687 303.931 56.4901 305.734 58.7139 305.734Z" fill="#FAFAFA"/>
<path d="M33.18 153.171L154.427 153.171V73.7715L33.18 73.7715L33.18 153.171Z" fill="#E6E6E6"/>
<path d="M29.481 153.171L152.699 153.171V73.7715L29.481 73.7715L29.481 153.171Z" fill="#F0F0F0"/>
<path d="M33.18 168.754L154.427 168.754V153.171H33.18V168.754Z" fill="#E6E6E6"/>
<path d="M23.3171 168.754L146.535 168.754V153.171H23.3171V168.754Z" fill="#F0F0F0"/>
<path d="M147.519 147.993V78.9517L34.6603 78.9517L34.6603 147.993H147.519Z" fill="#FAFAFA"/>
<path d="M122.07 147.993L107.655 78.9519H85.1614L99.5767 147.993H122.07Z" fill="white"/>
<path d="M145.121 142.837C145.325 142.837 145.491 142.672 145.491 142.468V82.3214C145.491 82.1172 145.325 81.9518 145.121 81.9518C144.917 81.9518 144.75 82.1172 144.75 82.3214V142.468C144.751 142.672 144.917 142.837 145.121 142.837Z" fill="#F0F0F0"/>
<path d="M94.7445 147.993L80.3293 78.9519H71.5601L85.9753 147.993H94.7445Z" fill="white"/>
<path d="M35.3177 147.993L35.3177 78.9517H34.6604L34.6604 147.993H35.3177Z" fill="#E6E6E6"/>
<path opacity="0.6" d="M28.2552 86.7602H149.503L149.979 80.9645H28.7322L28.2552 86.7602Z" fill="#EBEBEB"/>
<path opacity="0.6" d="M28.2552 90.0302H149.503L149.979 84.2336H28.7322L28.2552 90.0302Z" fill="#EBEBEB"/>
<path opacity="0.6" d="M28.2552 93.2993H149.503L149.979 87.5037H28.7322L28.2552 93.2993Z" fill="#EBEBEB"/>
<path opacity="0.6" d="M28.2552 96.5695H149.503L149.979 90.7729H28.7322L28.2552 96.5695Z" fill="#EBEBEB"/>
<path opacity="0.6" d="M28.2552 99.8387H149.503L149.979 94.043H28.7322L28.2552 99.8387Z" fill="#EBEBEB"/>
<path opacity="0.6" d="M28.2552 103.108H149.503L149.979 97.3123H28.7322L28.2552 103.108Z" fill="#EBEBEB"/>
<path d="M52.4922 240.479H56.6836L56.6836 193.758H52.4922L52.4922 240.479Z" fill="#F5F5F5"/>
<path d="M53.0316 240.446H54.2152L54.2152 193.725H53.0316L53.0316 240.446Z" fill="#FAFAFA"/>
<path d="M54.7113 240.446H55.175L55.175 193.725H54.7113L54.7113 240.446Z" fill="#FAFAFA"/>
<path d="M39.0714 243.326H70.1037C70.1037 241.167 68.3534 239.416 66.1939 239.416H42.9813C40.8217 239.416 39.0714 241.167 39.0714 243.326Z" fill="#F0F0F0"/>
<path d="M47.0547 222.761C47.7182 222.761 48.2603 222.218 48.2603 221.556V190.923C48.2603 190.26 47.7174 189.717 47.0547 189.717C46.3912 189.717 45.8491 190.26 45.8491 190.923V221.556C45.8491 222.219 46.3912 222.761 47.0547 222.761Z" fill="#F0F0F0"/>
<path d="M35.8251 204.863H73.35L69.0336 178.64H40.1415L35.8251 204.863Z" fill="#E0E0E0"/>
<path d="M188 376.254C282.232 376.254 358.622 371.793 358.622 366.289C358.622 360.786 282.232 356.325 188 356.325C93.7679 356.325 17.3777 360.786 17.3777 366.289C17.3777 371.793 93.7679 376.254 188 376.254Z" fill="#F5F5F5"/>
<path d="M59.6148 178.077L58.7371 178.14L59.9053 194.368L60.783 194.305L59.6148 178.077Z" fill="#4A1F0C"/>
<path d="M61.4025 202.678L60.5248 202.741L60.9648 208.846L61.8425 208.783L61.4025 202.678Z" fill="#4A1F0C"/>
<path d="M265.186 277.342H76.7267C72.464 277.342 68.7257 273.854 68.4186 269.592L59.1584 140.997C58.8512 136.734 62.0879 133.247 66.3506 133.247H254.81C259.072 133.247 262.811 136.734 263.118 140.997L272.378 269.592C272.684 273.854 269.448 277.342 265.186 277.342Z" fill="#4A1F0C"/>
<path d="M265.908 277.342H77.4491C73.1864 277.342 69.4481 273.854 69.141 269.592L59.8808 140.997C59.5736 136.734 62.8103 133.247 67.073 133.247H255.532C259.795 133.247 263.533 136.734 263.84 140.997L273.1 269.592C273.407 273.854 270.171 277.342 265.908 277.342Z" fill="#4A1F0C"/>
<path opacity="0.5" d="M265.908 277.342H77.4491C73.1864 277.342 69.4481 273.854 69.141 269.592L59.8808 140.997C59.5736 136.734 62.8103 133.247 67.073 133.247H255.532C259.795 133.247 263.533 136.734 263.84 140.997L273.1 269.592C273.407 273.854 270.171 277.342 265.908 277.342Z" fill="white"/>
<path d="M255.811 137.122H67.352C67.1391 137.122 66.9287 137.131 66.721 137.148C61.9039 137.545 62.8878 144.873 67.7498 144.873H256.53C261.392 144.873 261.321 137.545 256.446 137.148C256.236 137.131 256.024 137.122 255.811 137.122Z" fill="#4A1F0C"/>
<path d="M72.2606 140.998C72.331 141.979 71.5936 142.775 70.6115 142.775C69.6303 142.775 68.7776 141.979 68.7072 140.998C68.6368 140.017 69.3742 139.221 70.3563 139.221C71.3384 139.221 72.1902 140.016 72.2606 140.998Z" fill="#FAFAFA"/>
<path d="M78.3044 140.998C78.3748 141.979 77.6374 142.775 76.6553 142.775C75.6741 142.775 74.8214 141.979 74.751 140.998C74.6806 140.017 75.418 139.221 76.4001 139.221C77.3813 139.221 78.234 140.016 78.3044 140.998Z" fill="#FAFAFA"/>
<path d="M84.3483 140.998C84.4187 141.979 83.6803 142.775 82.6991 142.775C81.7179 142.775 80.8652 141.979 80.794 140.998C80.7236 140.017 81.4619 139.221 82.4431 139.221C83.4243 139.221 84.277 140.016 84.3483 140.998Z" fill="#FAFAFA"/>
<path d="M260.912 264.508H80.5969C79.0455 264.508 77.6965 263.249 77.5847 261.698L69.9692 155.946C69.8574 154.394 71.0252 153.136 72.5766 153.136H252.891C254.443 153.136 255.792 154.393 255.904 155.946L263.519 261.698C263.631 263.249 262.463 264.508 260.912 264.508Z" fill="white"/>
<path d="M184.947 224.222L182.012 183.461L173.117 178.108H148.649L151.97 224.222H184.947Z" fill="white"/>
<path d="M184.946 224.649H151.97C151.747 224.649 151.561 224.477 151.545 224.253L148.224 178.138C148.215 178.02 148.257 177.903 148.338 177.817C148.419 177.73 148.531 177.682 148.65 177.682H173.118C173.195 177.682 173.272 177.703 173.338 177.743L182.232 183.096C182.35 183.168 182.427 183.293 182.437 183.431L185.372 224.191C185.38 224.309 185.339 224.426 185.258 224.513C185.178 224.6 185.064 224.649 184.946 224.649ZM152.367 223.796H184.488L181.602 183.713L172.999 178.534H149.108L152.367 223.796Z" fill="#4A1F0C"/>
<path d="M182.012 183.461L173.117 178.108L176.382 185.2L182.012 183.461Z" fill="#EBEBEB"/>
<path d="M176.382 185.626C176.219 185.626 176.066 185.532 175.995 185.378L172.729 178.286C172.651 178.116 172.692 177.915 172.832 177.79C172.971 177.665 173.176 177.646 173.337 177.742L182.231 183.096C182.375 183.182 182.454 183.346 182.434 183.513C182.414 183.681 182.298 183.82 182.137 183.869L176.508 185.608C176.467 185.62 176.425 185.626 176.382 185.626ZM174.084 179.187L176.614 184.682L180.975 183.335L174.084 179.187Z" fill="#4A1F0C"/>
<path d="M162.453 198.884C162.527 199.913 161.753 200.747 160.724 200.747C159.694 200.747 158.801 199.913 158.727 198.884C158.653 197.856 159.426 197.021 160.455 197.021C161.484 197.021 162.379 197.856 162.453 198.884Z" fill="#4A1F0C"/>
<path d="M174.54 198.884C174.614 199.913 173.841 200.747 172.811 200.747C171.782 200.747 170.888 199.913 170.814 198.884C170.74 197.856 171.513 197.021 172.543 197.021C173.572 197.022 174.466 197.856 174.54 198.884Z" fill="#4A1F0C"/>
<path d="M177.95 210.967C177.729 210.967 177.542 210.795 177.525 210.571C177.31 207.575 172.612 205.139 167.053 205.139C163.371 205.139 160.064 206.233 158.424 207.996C157.695 208.78 157.358 209.625 157.421 210.509C157.438 210.744 157.261 210.948 157.026 210.965C156.79 210.98 156.587 210.805 156.57 210.57C156.49 209.456 156.915 208.365 157.799 207.414C159.595 205.483 163.141 204.285 167.053 204.285C173.151 204.285 178.125 207.019 178.376 210.508C178.393 210.743 178.216 210.947 177.981 210.964C177.971 210.967 177.96 210.967 177.95 210.967Z" fill="#4A1F0C"/>
<path d="M155.587 195.111C155.483 195.111 155.379 195.073 155.297 194.997C155.124 194.837 155.114 194.567 155.274 194.395L157.143 192.381C157.303 192.208 157.573 192.199 157.746 192.358C157.918 192.518 157.928 192.789 157.769 192.961L155.9 194.974C155.816 195.065 155.701 195.111 155.587 195.111Z" fill="#4A1F0C"/>
<path d="M177.074 195.111C176.97 195.111 176.865 195.073 176.783 194.996L174.624 192.983C174.452 192.823 174.443 192.553 174.603 192.38C174.763 192.208 175.033 192.199 175.206 192.359L177.364 194.373C177.537 194.533 177.546 194.803 177.386 194.975C177.302 195.065 177.188 195.111 177.074 195.111Z" fill="#4A1F0C"/>
<path d="M145.986 233.335H147.975L150.845 237.149L150.57 233.335H152.577L153.074 240.228H151.066L148.212 236.443L148.485 240.228H146.482L145.986 233.335Z" fill="#4A1F0C"/>
<path d="M153.974 236.785C153.893 235.66 154.143 234.784 154.725 234.157C155.307 233.53 156.158 233.216 157.277 233.216C158.424 233.216 159.33 233.524 159.995 234.14C160.66 234.756 161.032 235.618 161.113 236.728C161.171 237.533 161.083 238.194 160.849 238.71C160.614 239.225 160.252 239.627 159.76 239.913C159.268 240.2 158.64 240.344 157.875 240.344C157.098 240.344 156.445 240.22 155.918 239.972C155.391 239.725 154.95 239.333 154.594 238.797C154.239 238.262 154.032 237.591 153.974 236.785ZM156.104 236.795C156.155 237.491 156.32 237.991 156.6 238.294C156.881 238.599 157.243 238.75 157.688 238.75C158.146 238.75 158.489 238.601 158.719 238.303C158.949 238.006 159.035 237.471 158.979 236.7C158.933 236.051 158.767 235.577 158.484 235.278C158.201 234.978 157.835 234.829 157.387 234.829C156.957 234.829 156.624 234.981 156.385 235.285C156.148 235.59 156.054 236.093 156.104 236.795Z" fill="#4A1F0C"/>
<path d="M165.254 233.335H168.418C169.042 233.335 169.552 233.419 169.949 233.588C170.345 233.757 170.68 234 170.954 234.317C171.227 234.633 171.436 235.001 171.578 235.422C171.722 235.842 171.81 236.287 171.844 236.757C171.897 237.493 171.855 238.065 171.716 238.471C171.577 238.877 171.369 239.217 171.091 239.491C170.813 239.766 170.507 239.948 170.171 240.038C169.714 240.164 169.295 240.227 168.915 240.227H165.751L165.254 233.335ZM167.496 234.896L167.767 238.662H168.289C168.734 238.662 169.047 238.613 169.228 238.514C169.409 238.416 169.544 238.243 169.633 237.997C169.722 237.75 169.746 237.352 169.707 236.8C169.654 236.07 169.499 235.57 169.241 235.3C168.983 235.031 168.578 234.897 168.027 234.897H167.496V234.896Z" fill="#4A1F0C"/>
<path d="M176.954 239.089H174.536L174.282 240.227H172.107L174.202 233.334H176.525L179.611 240.227H177.38L176.954 239.089ZM176.405 237.599L175.465 235.121L174.891 237.599H176.405Z" fill="#4A1F0C"/>
<path d="M178.645 233.335H185.119L185.241 235.037H183.069L183.443 240.228H181.314L180.94 235.037H178.768L178.645 233.335Z" fill="#4A1F0C"/>
<path d="M190.081 239.089H187.663L187.409 240.227H185.234L187.329 233.334H189.652L192.738 240.227H190.507L190.081 239.089ZM189.532 237.599L188.593 235.121L188.019 237.599H189.532Z" fill="#4A1F0C"/>
<path d="M279.245 152.31C280.032 151.916 280.969 151.407 281.836 150.931C282.719 150.446 283.597 149.94 284.461 149.413C286.185 148.352 287.923 147.303 289.572 146.138C292.9 143.846 296.018 141.302 298.824 138.523C299.192 138.187 299.504 137.814 299.844 137.459L300.345 136.92L300.597 136.651L300.723 136.516C300.756 136.481 300.748 136.488 300.732 136.509L300.704 136.552C300.579 136.787 300.683 136.716 300.732 136.489C300.791 136.271 300.84 135.914 300.856 135.529C300.912 133.931 300.597 131.916 300.214 129.969C299.431 126.022 298.245 121.963 297.073 117.985L300.491 116.486C302.633 120.31 304.418 124.216 305.871 128.452C306.562 130.597 307.198 132.752 307.383 135.398C307.418 136.072 307.433 136.78 307.31 137.606C307.181 138.42 306.976 139.393 306.234 140.496L306.087 140.7L305.974 140.848L305.838 141.013L305.567 141.342L305.024 142.002C304.657 142.437 304.309 142.895 303.919 143.303C300.885 146.672 297.509 149.648 293.905 152.236C292.112 153.547 290.28 154.791 288.376 155.924C287.429 156.497 286.469 157.048 285.493 157.582C284.504 158.132 283.565 158.609 282.442 159.137L279.245 152.31Z" fill="#FFB573"/>
<path d="M271.419 359.197C272.1 359.197 272.844 359.056 273.364 358.933C273.432 358.917 273.484 358.862 273.496 358.793C273.509 358.724 273.479 358.655 273.421 358.617C273.168 358.45 270.93 357.006 270.072 357.394C269.937 357.456 269.767 357.591 269.725 357.885C269.669 358.276 269.767 358.588 270.014 358.813C270.328 359.1 270.852 359.197 271.419 359.197ZM272.871 358.684C271.588 358.94 270.622 358.896 270.249 358.555C270.091 358.411 270.032 358.208 270.071 357.934C270.091 357.787 270.16 357.739 270.216 357.713C270.667 357.509 271.958 358.132 272.871 358.684Z" fill="#4A1F0C"/>
<path d="M273.325 358.938C273.355 358.938 273.386 358.93 273.413 358.914C273.467 358.882 273.5 358.825 273.5 358.763C273.5 358.673 273.49 356.55 272.689 355.841C272.476 355.653 272.227 355.575 271.949 355.608C271.512 355.661 271.394 355.936 271.362 356.095C271.195 356.925 272.535 358.515 273.239 358.914C273.265 358.93 273.295 358.938 273.325 358.938ZM272.071 355.949C272.214 355.949 272.341 356 272.457 356.103C272.936 356.526 273.1 357.717 273.14 358.424C272.439 357.864 271.604 356.669 271.705 356.163C271.721 356.081 271.769 355.982 271.992 355.955C272.018 355.951 272.044 355.949 272.071 355.949Z" fill="#4A1F0C"/>
<path d="M272.676 130.299C271.819 134.673 270.012 143.532 273.072 146.45C273.072 146.45 271.876 150.887 263.75 150.887C254.813 150.887 259.479 146.451 259.479 146.451C264.357 145.286 264.231 141.668 263.381 138.269L272.676 130.299Z" fill="#FFB573"/>
<path d="M257.77 148.213C256.367 148.403 257.561 144.77 258.131 144.393C259.447 143.523 276.48 142.291 276.369 144.358C276.298 145.248 275.88 146.984 275.136 147.573C274.391 148.163 270.015 146.381 257.77 148.213Z" fill="#263238"/>
<path d="M260.545 146.99C259.431 147.367 259.536 143.705 259.915 143.264C260.794 142.245 274.58 138.703 274.989 140.707C275.146 141.572 275.222 143.3 274.75 143.972C274.277 144.642 270.226 143.532 260.545 146.99Z" fill="#263238"/>
<path d="M255.417 122.415C255.309 122.421 255.199 122.378 255.126 122.288C254.14 121.082 252.859 121.205 252.846 121.207C252.652 121.227 252.482 121.089 252.462 120.897C252.441 120.705 252.58 120.533 252.772 120.513C252.839 120.506 254.444 120.35 255.667 121.845C255.789 121.994 255.767 122.214 255.618 122.336C255.559 122.385 255.488 122.411 255.417 122.415Z" fill="#263238"/>
<path d="M253.711 126.721C253.711 126.721 252.958 129.367 251.973 130.705C252.826 131.357 254.121 130.893 254.121 130.893L253.711 126.721Z" fill="#FF5652"/>
<path d="M254.141 125.652C254.199 126.243 253.932 126.753 253.546 126.792C253.159 126.83 252.799 126.381 252.74 125.79C252.682 125.198 252.948 124.688 253.335 124.649C253.722 124.611 254.083 125.06 254.141 125.652Z" fill="#263238"/>
<path d="M253.51 124.665L252.048 124.395C252.048 124.395 252.887 125.434 253.51 124.665Z" fill="#263238"/>
<path d="M281.896 358.763H274.525L275.103 341.693H282.474L281.896 358.763Z" fill="#FFB573"/>
<path d="M273.942 357.91H282.223C282.524 357.91 282.768 358.12 282.81 358.414L283.754 364.965C283.851 365.644 283.267 366.288 282.572 366.276C279.685 366.227 278.293 366.057 274.652 366.057C272.411 366.057 269.138 366.29 266.045 366.29C263.018 366.29 262.786 363.23 264.074 362.953C269.851 361.711 270.763 359.998 272.71 358.363C273.06 358.069 273.501 357.91 273.942 357.91Z" fill="#263238"/>
<g opacity="0.2">
<path d="M282.476 341.698H275.102L274.808 350.497H282.182L282.476 341.698Z" fill="black"/>
</g>
<path d="M252.569 156.679C248.008 154.893 243.657 152.951 239.325 150.735C235 148.522 230.742 146.164 226.65 143.015C225.631 142.213 224.623 141.337 223.638 140.313C223.393 140.049 223.147 139.805 222.906 139.502C222.653 139.183 222.462 138.996 222.133 138.507C221.538 137.651 221.077 136.503 220.955 135.331C220.84 134.158 221.05 133.037 221.387 132.144C221.723 131.235 222.164 130.493 222.625 129.85C223.55 128.562 224.575 127.61 225.608 126.753C227.67 125.046 229.85 123.805 232.034 122.646C233.126 122.067 234.238 121.545 235.364 121.064C236.496 120.576 237.6 120.122 238.802 119.708L240.364 123.099C236.525 125.518 232.549 128.177 229.626 131.159C228.916 131.897 228.294 132.67 227.904 133.35C227.485 134.042 227.49 134.561 227.561 134.521C227.597 134.521 227.583 134.505 227.685 134.607L228.036 134.983C228.168 135.141 228.353 135.302 228.52 135.464C229.21 136.109 230.021 136.756 230.895 137.372C232.642 138.616 234.566 139.779 236.557 140.866C238.54 141.968 240.581 143.022 242.659 144.023C246.806 146.009 251.106 147.92 255.324 149.666L252.569 156.679Z" fill="#FFB573"/>
<path d="M242.533 120.695L243.752 118.052L238.211 116.128C238.211 116.128 236.485 121.323 238.542 123.72C240.293 123.439 241.79 122.306 242.533 120.695Z" fill="#FFB573"/>
<path d="M243.752 112.337L239.322 111.06L238.211 116.127L243.752 118.052V112.337Z" fill="#FFB573"/>
<path d="M300.948 118.308L301.594 112.13L295.885 113.472C295.885 113.472 295.801 119.263 298.821 120.186L300.948 118.308Z" fill="#FFB573"/>
<path d="M298.843 107.806L295.123 109.543L295.884 113.472L301.593 112.13L298.843 107.806Z" fill="#FFB573"/>
<path d="M273.835 121.664C274.104 128.975 274.374 132.063 271.07 136.154C266.102 142.307 257.063 141.038 254.616 133.955C252.413 127.58 252.344 116.696 259.173 113.104C265.9 109.566 273.567 114.353 273.835 121.664Z" fill="#FFB573"/>
<path d="M270.65 136.14C277.827 133.039 282.547 126.5 280.555 116.275C278.649 106.493 272.044 105.527 269.316 107.556C266.588 109.586 259.789 106.561 255.708 109.995C248.637 115.944 255.322 122.359 258.804 126.16C260.884 130.435 263.609 139.184 270.65 136.14Z" fill="#263238"/>
<path d="M267.671 114.521C270.093 118.027 274.737 119.017 278.046 116.732C281.355 114.448 282.074 109.753 279.652 106.246C277.23 102.739 272.586 101.749 269.277 104.034C265.968 106.319 265.249 111.014 267.671 114.521Z" fill="#4A1F0C"/>
<path d="M269.534 108.242C268.498 102.348 274.075 97.8023 281.533 99.9988C288.991 102.195 285.046 108.807 283.517 114.087C281.988 119.367 286.001 124.396 287.679 120.374C289.356 116.354 286.536 115.112 286.536 115.112C286.536 115.112 294.455 117.165 287.099 126.092C279.742 135.019 273.082 125.162 274.883 119.344C276.339 114.643 270.513 113.813 269.534 108.242Z" fill="#263238"/>
<path d="M262.08 110.469C258.675 108.693 252.91 107.257 249.628 112.777C248.077 115.387 248.678 118.928 248.678 118.928L258.7 119.595L262.08 110.469Z" fill="#263238"/>
<path d="M247.499 117.197C247.494 117.197 247.49 117.197 247.485 117.196C247.363 117.189 247.272 117.084 247.279 116.963C247.287 116.813 247.53 113.273 249.667 111.052C254.832 105.685 260.887 110.136 262.62 111.629C262.712 111.708 262.723 111.847 262.643 111.94C262.562 112.032 262.424 112.042 262.332 111.962C260.673 110.534 254.881 106.269 249.984 111.357C247.961 113.459 247.719 116.955 247.717 116.99C247.711 117.106 247.614 117.197 247.499 117.197Z" fill="#263238"/>
<path d="M260.031 125.869C260.02 127.293 259.382 128.687 258.574 129.633C257.358 131.055 255.964 130.354 255.645 128.778C255.357 127.358 255.642 124.908 257.18 124.049C258.693 123.204 260.043 124.241 260.031 125.869Z" fill="#FFB573"/>
<path d="M258.447 192.827C258.447 192.827 258.917 243.994 263.355 272.507C266.94 295.537 273.575 348.793 273.575 348.793H283.626C283.626 348.793 284.608 297.38 282.788 274.602C278.183 216.964 290.067 206.188 280.477 192.827H258.447Z" fill="#263238"/>
<path opacity="0.1" d="M258.447 192.827C258.447 192.827 258.917 243.994 263.355 272.507C266.94 295.537 273.575 348.793 273.575 348.793H283.626C283.626 348.793 284.608 297.38 282.788 274.602C278.183 216.964 290.067 206.188 280.477 192.827H258.447Z" fill="white"/>
<path opacity="0.3" d="M263.73 216.04C267.259 231.484 264.443 255.807 262.516 266.517C260.474 250.254 259.445 229.178 258.934 213.734C260.756 210.778 262.481 210.584 263.73 216.04Z" fill="black"/>
<path d="M272.199 348.992H285.002L285.675 344.501L272.126 344.042L272.199 348.992Z" fill="#4A1F0C"/>
<path d="M275.853 149.637C277.057 147.243 283.531 145.736 287.07 145.741L289.718 157.502C289.718 157.502 282.668 167.966 279.737 166.856C276.273 165.547 273.273 154.767 275.853 149.637Z" fill="#4A1F0C"/>
<path opacity="0.4" d="M275.853 149.637C277.057 147.243 283.531 145.736 287.07 145.741L289.718 157.502C289.718 157.502 282.668 167.966 279.737 166.856C276.273 165.547 273.273 154.767 275.853 149.637Z" fill="black"/>
<path d="M268.391 346.116C268.422 346.064 268.425 345.998 268.396 345.943C268.362 345.878 268.289 345.841 268.216 345.852C267.846 345.908 264.588 346.425 264.148 347.355C264.063 347.536 264.075 347.726 264.183 347.905C264.362 348.206 264.616 348.374 264.938 348.407C266.005 348.517 267.547 347.036 268.37 346.144C268.377 346.134 268.385 346.125 268.391 346.116ZM264.483 347.468C264.784 346.974 266.468 346.519 267.754 346.283C266.593 347.463 265.57 348.12 264.972 348.059C264.762 348.037 264.602 347.927 264.481 347.725C264.433 347.646 264.428 347.578 264.463 347.504C264.469 347.492 264.476 347.48 264.483 347.468Z" fill="#4A1F0C"/>
<path d="M268.391 346.115C268.398 346.105 268.403 346.093 268.407 346.08C268.427 346.022 268.414 345.957 268.374 345.91C268.319 345.846 267.013 344.342 265.81 344.264C265.442 344.24 265.12 344.349 264.851 344.59C264.49 344.913 264.52 345.195 264.611 345.374C264.992 346.129 267.333 346.392 268.277 346.196C268.325 346.185 268.365 346.156 268.391 346.115ZM264.945 345.008C264.973 344.963 265.017 344.91 265.085 344.849C265.283 344.671 265.513 344.594 265.788 344.612C266.578 344.664 267.476 345.482 267.885 345.898C266.842 345.986 265.151 345.669 264.923 345.216C264.909 345.189 264.875 345.122 264.945 345.008Z" fill="#4A1F0C"/>
<path d="M276.073 342.993L269.331 345.988L266.327 339.735L262.401 331.548L261.941 330.596L268.675 327.597L269.196 328.669L273.002 336.597L276.073 342.993Z" fill="#FFB573"/>
<path opacity="0.2" d="M273.002 336.597L266.327 339.735L262.401 331.548L269.196 328.669L273.002 336.597Z" fill="black"/>
<path d="M250.541 192.827C250.541 192.827 229.004 246.362 234.842 271.572C240.117 294.355 263.445 337.502 263.445 337.502L272.465 332.974C272.465 332.974 258.044 280.889 256.479 269.574C253.435 247.558 273.002 216.481 273.002 192.827H250.541Z" fill="#263238"/>
<path opacity="0.1" d="M250.541 192.827C250.541 192.827 229.004 246.362 234.842 271.572C240.117 294.355 263.445 337.502 263.445 337.502L272.465 332.974C272.465 332.974 258.044 280.889 256.479 269.574C253.435 247.558 273.002 216.481 273.002 192.827H250.541Z" fill="white"/>
<path d="M268.128 345.051L274.824 340.177C275.067 340 275.388 340.025 275.595 340.238L280.214 344.98C280.692 345.472 280.598 346.336 280.03 346.736C277.666 348.395 276.441 349.077 273.497 351.22C271.685 352.538 268.076 355.453 265.575 357.274C263.128 359.054 261.14 356.718 262.019 355.736C265.958 351.332 266.788 348.609 267.4 346.142C267.51 345.697 267.772 345.31 268.128 345.051Z" fill="#263238"/>
<path d="M262.864 339.411L274.508 334.085L273.013 329.341L260.546 335.028L262.864 339.411Z" fill="#4A1F0C"/>
<path d="M256.256 149.037C255.29 146.537 246.878 143.795 242.659 142.837L240.804 156.713C240.804 156.713 247.696 166.617 250.722 165.798C254.295 164.831 258.326 154.393 256.256 149.037Z" fill="#4A1F0C"/>
<path opacity="0.4" d="M256.256 149.037C255.29 146.537 246.878 143.795 242.659 142.837L240.804 156.713C240.804 156.713 247.696 166.617 250.722 165.798C254.295 164.831 258.326 154.393 256.256 149.037Z" fill="black"/>
<path d="M247.018 148.339C247.018 148.339 243.507 149.575 250.541 192.827C262.42 192.827 274.698 192.827 280.477 192.827C279.975 180.643 279.961 173.13 285.784 148.125C285.784 148.125 279.511 146.76 273.071 146.451C268.033 146.208 263.906 146.047 259.477 146.451C253.64 146.984 247.018 148.339 247.018 148.339Z" fill="#4A1F0C"/>
<path opacity="0.4" d="M247.018 148.339C247.018 148.339 243.507 149.575 250.541 192.827C262.42 192.827 274.698 192.827 280.477 192.827C279.975 180.643 279.961 173.13 285.784 148.125C285.784 148.125 279.511 146.76 273.071 146.451C268.033 146.208 263.906 146.047 259.477 146.451C253.64 146.984 247.018 148.339 247.018 148.339Z" fill="black"/>
<path d="M280.926 191.07L282.276 193.75C282.381 193.957 282.135 194.169 281.789 194.169H250.393C250.123 194.169 249.899 194.037 249.883 193.868L249.612 191.188C249.594 191.002 249.828 190.845 250.123 190.845H280.439C280.661 190.846 280.858 190.936 280.926 191.07Z" fill="#4A1F0C"/>
<path opacity="0.3" d="M280.926 191.07L282.276 193.75C282.381 193.957 282.135 194.169 281.789 194.169H250.393C250.123 194.169 249.899 194.037 249.883 193.868L249.612 191.188C249.594 191.002 249.828 190.845 250.123 190.845H280.439C280.661 190.846 280.858 190.936 280.926 191.07Z" fill="white"/>
<path d="M276.855 194.46H277.667C277.829 194.46 277.952 194.376 277.94 194.275L277.559 190.794C277.548 190.692 277.407 190.609 277.245 190.609H276.433C276.271 190.609 276.148 190.692 276.159 190.794L276.54 194.275C276.552 194.377 276.693 194.46 276.855 194.46Z" fill="#263238"/>
<path d="M257.175 194.46H257.987C258.149 194.46 258.272 194.376 258.261 194.275L257.88 190.794C257.869 190.692 257.728 190.609 257.566 190.609H256.754C256.592 190.609 256.468 190.692 256.48 190.794L256.861 194.275C256.871 194.377 257.013 194.46 257.175 194.46Z" fill="#263238"/>
</g>
</svg>
