<svg width="18" height="18" viewBox="0 0 18 18" fill="none" xmlns="http://www.w3.org/2000/svg">
<rect width="18" height="18" rx="4" fill="#2C486F"/>
<path d="M12.75 9.41667H10.0834C9.62504 9.41667 9.16671 9.29167 8.75004 9.08333C8.33337 8.875 8.00004 8.54167 7.70837 8.16667C7.33337 7.66667 6.70837 7.33333 6.04171 7.33333H5.25004C5.00004 7.33333 4.83337 7.16667 4.83337 6.91667C4.83337 6.66667 5.00004 6.5 5.25004 6.5H6.04171C6.95837 6.5 7.83337 6.95833 8.37504 7.70833C8.54171 7.95833 8.79171 8.20833 9.08337 8.33333C9.37504 8.5 9.70837 8.54167 10 8.54167H12.75C13 8.54167 13.1667 8.70833 13.1667 8.95833C13.1667 9.20833 13 9.41667 12.75 9.41667Z" fill="white"/>
<path d="M6.08337 11.5H5.25004C5.00004 11.5 4.83337 11.3333 4.83337 11.0833C4.83337 10.8333 5.00004 10.6667 5.25004 10.6667H6.08337C6.41671 10.6667 6.75004 10.5833 7.00004 10.4583C7.29171 10.2917 7.54171 10.0833 7.70837 9.83333C7.95837 9.45833 8.33337 9.16666 8.75004 8.91666C9.16671 8.70833 9.62504 8.58333 10.0834 8.58333H12.3334C12.5834 8.58333 12.75 8.74999 12.75 8.99999C12.75 9.24999 12.5834 9.41666 12.3334 9.41666H10.0417C9.70837 9.41666 9.37504 9.49999 9.12504 9.62499C8.83337 9.79166 8.58337 9.99999 8.41671 10.25C8.16671 10.625 7.79171 10.9167 7.37504 11.1667C6.95837 11.375 6.50004 11.5 6.08337 11.5Z" fill="white"/>
<path d="M11.5 10.6667C11.375 10.6667 11.2917 10.625 11.2084 10.5417C11.0417 10.375 11.0417 10.125 11.2084 9.95833L12.1667 8.99999L11.2084 8.04166C11.0417 7.87499 11.0417 7.62499 11.2084 7.45833C11.375 7.29166 11.625 7.29166 11.7917 7.45833L13.0417 8.70833C13.2084 8.87499 13.2084 9.12499 13.0417 9.29166L11.7917 10.5417C11.7084 10.625 11.625 10.6667 11.5 10.6667Z" fill="white"/>
</svg>
