<svg width="24" height="24" viewBox="0 0 24 24" fill="none" xmlns="http://www.w3.org/2000/svg">
<g clip-path="url(#clip0_1_2)">
<path d="M11.7094 13.8494L10.7313 15.8053L10.7313 15.8054L10.5972 15.7383C10.5804 15.7719 10.5571 15.8017 10.5286 15.8261C10.5001 15.8506 10.467 15.869 10.4312 15.8804C10.3954 15.8919 10.3578 15.896 10.3204 15.8927C10.283 15.8893 10.2467 15.8785 10.2135 15.8609L11.7094 13.8494ZM11.7094 13.8494V22.0937L4.13438 18.4325V12.7981L11.7094 13.8494ZM22.8419 3.52944L22.8419 3.52944L13.7903 0.806002L13.7903 0.805999C13.6888 0.775464 13.5796 0.783385 13.4836 0.82825C13.3875 0.873113 13.3114 0.951775 13.2697 1.04922C13.2697 1.04922 13.2697 1.04922 13.2697 1.04922L12.0955 3.79118L10.7151 1.19933L10.7151 1.19932C10.6691 1.11292 10.595 1.04475 10.5051 1.00602C10.4152 0.967292 10.3148 0.960303 10.2204 0.986202C10.2204 0.986203 10.2204 0.986205 10.2204 0.986206L1.1683 3.46889C1.10451 3.48638 1.0456 3.51831 0.996126 3.56221C0.946653 3.60612 0.90794 3.66081 0.882983 3.72206C0.858025 3.78331 0.847492 3.84949 0.852198 3.91546C0.856904 3.98144 0.876722 4.04544 0.910118 4.10253C0.910119 4.10254 0.91012 4.10254 0.910121 4.10254L3.03944 7.74267L1.40154 10.859C1.34849 10.9599 1.33757 11.0777 1.37116 11.1867C1.40476 11.2956 1.48013 11.3868 1.58079 11.4404L3.27188 12.3396V18.7031V18.7033C3.27196 18.7843 3.29486 18.8637 3.33795 18.9323C3.38104 19.0009 3.44258 19.056 3.51553 19.0913L11.9499 23.1694L11.9499 23.1694C12.0085 23.1977 12.0726 23.2124 12.1376 23.2124C12.2027 23.2124 12.2668 23.1977 12.3254 23.1694L12.3254 23.1694L20.7622 19.0916C20.7623 19.0916 20.7623 19.0916 20.7624 19.0915C20.8355 19.0566 20.8974 19.0019 20.9411 18.9336C20.9848 18.8652 21.0084 18.786 21.0094 18.7049V18.7031V12.3365L22.6946 11.4404C22.7953 11.3868 22.8706 11.2956 22.9042 11.1867C22.9378 11.0777 22.9269 10.9599 22.8739 10.859L22.7411 10.9288L22.8739 10.859L21.2294 7.73061L23.1 4.14174C23.1294 4.08547 23.1459 4.0234 23.1485 3.95999C23.1511 3.89657 23.1397 3.83337 23.115 3.77488C23.0904 3.7164 23.0531 3.66407 23.0059 3.62165C22.9587 3.57922 22.9027 3.54774 22.8419 3.52944ZM14.1321 15.9935L20.1469 12.7952V18.4327L12.5719 22.0939V13.8612L13.544 15.8055C13.5697 15.857 13.6055 15.9028 13.6492 15.9402C13.6929 15.9777 13.7436 16.006 13.7984 16.0235C13.8532 16.041 13.911 16.0474 13.9683 16.0422C14.0256 16.0371 14.0813 16.0205 14.1321 15.9935L14.1321 15.9935ZM3.72687 7.20929L1.93835 4.15205L10.1159 1.90917L11.519 4.54379L3.72687 7.20929ZM10.1576 15.0243L2.36472 10.8804L3.71795 8.30597L11.559 12.2216L10.1576 15.0243ZM12.1377 5.24372L19.628 7.806L12.1377 11.5464L4.64725 7.806L12.1377 5.24372ZM21.9107 10.8804L14.1177 15.0243L12.7162 12.2216L20.5573 8.30597L21.9107 10.8804ZM13.911 1.74277L22.0943 4.2052L20.5316 7.20347L12.7172 4.53036L13.911 1.74277Z" fill="#9DB2CE" stroke="#9DB2CE" stroke-width="0.3"/>
</g>
<defs>
<clipPath id="clip0_1_2">
<rect width="24" height="24" fill="white"/>
</clipPath>
</defs>
</svg>
